<?xml version="1.0" encoding="utf-8"?>
<!-- Generator: Adobe Illustrator 16.0.0, SVG Export Plug-In . SVG Version: 6.00 Build 0)  -->
<!DOCTYPE svg PUBLIC "-//W3C//DTD SVG 1.1//EN" "http://www.w3.org/Graphics/SVG/1.1/DTD/svg11.dtd">
<svg version="1.1" id="Layer_1" xmlns="http://www.w3.org/2000/svg" xmlns:xlink="http://www.w3.org/1999/xlink" x="0px" y="0px"
	 width="130px" height="130px" viewBox="0 0 130 130" enable-background="new 0 0 130 130" xml:space="preserve">
<g>
	<g id="Base_icon_copy_12_3_">
		<path fill="#3F91CB" d="M125.8,1H4.2C2.433,1,1,2.433,1,4.2v121.6c0,1.768,1.433,3.2,3.2,3.2h121.6c1.768,0,3.2-1.433,3.2-3.2V4.2
			C129,2.433,127.567,1,125.8,1z"/>
	</g>
	<g id="GitHub_icon">
		<path fill="#FFFFFF" d="M64.989,27.245c-20.847,0-37.747,16.899-37.747,37.747c0,17.735,12.237,32.607,28.726,36.652
			c-0.006-4.667-0.02-13.544-0.023-13.867c-0.069-0.043-7.156,4.107-10.771-3.15c-0.436-0.898-1.313-3.896-3.511-5.576
			c-0.079-0.065-1.702-0.894-1.852-1.708c-0.016-0.114,0.106-0.351,0.265-0.41c0.167-0.062,2.838-1.159,5.815,2.618
			c0.897,1.266,2.924,6.115,10.017,3.117c0.188-0.746,0.327-1.966,1.86-3.352c-10.562-1.262-14.423-4.879-15.92-13.909
			c-0.935-6.157,0.862-11.274,3.561-13.8c-0.408-0.539-1.756-5.037,0.339-9.795c2.269-0.455,6.433,1.175,10.091,3.811
			c5.16-1.866,14.85-1.381,18.316,0c1.647-1.364,7.531-4.546,10.056-3.805c0.742,1.89,1.812,6.466,0.333,9.803
			c3.289,3.385,4.215,7.755,3.622,13.124c-0.726,8.135-4.843,13.612-16.033,14.571c1.865,1.314,3.576,3.121,3.576,6.184
			c0,3.292-0.001,11.173-0.003,15.685c15.625-4.619,27.03-19.069,27.03-36.192C102.735,44.144,85.837,27.245,64.989,27.245z"/>
	</g>
</g>
</svg>
