<svg xmlns="http://www.w3.org/2000/svg" viewBox="0 0 56.8 72"><path fill="none" d="M0-.7h48v72H0z"/><path class="icon" fill="#667580" d="M52.8 32.9L42.2 22.3c-1.4-1.4-3.6-1.4-5 0s-1.4 3.6 0 5l4.6 4.6H20.9c-1.9 0-3.5 1.6-3.5 3.5s1.6 3.5 3.5 3.5h20.9l-4.6 4.6c-1.4 1.4-1.4 3.6 0 5 .7.7 1.6 1 2.5 1s1.8-.3 2.5-1l10.6-10.6c1.4-1.4 1.4-3.6 0-5z"/><path class="icon" fill="#667580" d="M24.4 49.4h-13c-.6 0-1.1-.5-1.2-1.1V22.4c0-.7.5-1.2 1.2-1.2h12.9c1.9 0 3.5-1.6 3.5-3.5s-1.6-3.5-3.5-3.5H8.9c-3.1 0-5.7 2.5-5.7 5.7v31c0 3.1 2.5 5.7 5.7 5.7h15.5c1.9 0 3.5-1.6 3.5-3.5.1-2.1-1.5-3.7-3.5-3.7z"/></svg>