<?xml version="1.0" encoding="utf-8"?>
<!-- Generator: Adobe Illustrator 16.0.0, SVG Export Plug-In . SVG Version: 6.00 Build 0)  -->
<!DOCTYPE svg PUBLIC "-//W3C//DTD SVG 1.1//EN" "http://www.w3.org/Graphics/SVG/1.1/DTD/svg11.dtd">
<svg version="1.1" id="Layer_1" xmlns="http://www.w3.org/2000/svg" xmlns:xlink="http://www.w3.org/1999/xlink" x="0px" y="0px"
	 width="130px" height="130px" viewBox="0 0 130 130" enable-background="new 0 0 130 130" xml:space="preserve">
<g>
	<g id="Base_icon">
		<path fill="#29C5F6" d="M125.8,1H4.2C2.433,1,1,2.433,1,4.2v121.6c0,1.768,1.433,3.2,3.2,3.2h121.6c1.768,0,3.2-1.433,3.2-3.2V4.2
			C129,2.433,127.567,1,125.8,1z"/>
	</g>
	<g id="Shape_164">
		<path fill="#FFFFFF" d="M90.247,48.26c4.567-2.982,4.971-7.074,4.971-7.074c-1.478,2.038-8.061,3.125-8.061,3.125
			c-5.643-6.659-14.107-3.125-14.107-3.125c-9.94,3.534-8.463,15.083-8.463,15.083c-17.33-0.271-26.736-13.588-26.736-13.588
			c-5.173,10.87,3.562,17.461,3.562,17.461c-1.949,0.204-5.441-1.359-5.441-1.359c-0.134,9.989,10.21,13.524,10.21,13.524
			c-0.94,0.135-5.375,0.135-5.375,0.135c2.286,8.153,11.957,8.97,11.957,8.97c-9.403,7.067-18.808,5.844-18.808,5.844
			c9.27,7.066,18.455,6.321,24.72,5.437C74.074,90.515,82.32,79.237,82.32,79.237c10.882-13.997,7.255-25.821,9.002-26.5
			c0.028-0.011,0.058-0.024,0.088-0.039c1.8-0.819,5.957-6.077,5.957-6.077C94.412,48.251,90.247,48.26,90.247,48.26z"/>
	</g>
</g>
</svg>
